<svg id="Layer_1" data-name="Layer 1" xmlns="http://www.w3.org/2000/svg" viewBox="0 0 325.32 350"><defs><style>.cls-1{fill:#10a210;}</style></defs><path class="cls-1" d="M308.14,133.21c-1,0-2,.06-3,.06a68.19,68.19,0,0,1-14.95-1.6A56,56,0,0,1,272,124.15a54.1,54.1,0,0,1-16.07-16.09,65.31,65.31,0,0,1-6-11.81,91,91,0,0,1-3.94-12.76c-1.67-2.11-5-6.27-8.57-11-2.6-3.44-5.34-7.19-7.75-10.67a91.41,91.41,0,0,1-5.89-9.37,8,8,0,0,1,1.85-9.67,5.08,5.08,0,0,0,.39-1.55c-2.15.19-4.63.34-7.33.41-1,0-1.93,0-2.93,0a97.11,97.11,0,0,1-12-.71,66.18,66.18,0,0,1-12.46-2.74,8,8,0,0,1-9.6,7.73c-.06,0-2.34-.48-5.86-1.31s-8.22-1.9-13.35-3.15c-2.48-.6-5.14-1.22-7.84-1.89s-5.5-1.46-8.2-2.38c-5.34-1.88-10.12-4-14.09-7.55a8,8,0,0,1-2.56-6.53,7.86,7.86,0,0,1,1-3.29c-.69,0-1.42,0-2.2,0s-1.8,0-2.79,0a61.83,61.83,0,0,0-7,.53c-1.29.32-2.73.74-4.3,1.25-1.87.61-4,1.3-6.4,1.89a32.46,32.46,0,0,1-8.08,1h-.72a64.09,64.09,0,0,1-7.84-.72,40.38,40.38,0,0,1-6.92-1.34,51.25,51.25,0,0,1-5.79-1.93,21.37,21.37,0,0,1-2.7-1.3,41.88,41.88,0,0,0-5.21,3,17,17,0,0,0-4.16,3.87,8,8,0,0,1-3,9l-1.16.83-3.31,2.42-.07,0c-1.35,1-3,2.19-4.75,3.63C44.45,49.84,29.62,64.65,24,82.85a54,54,0,0,0-2.47,14.32c0,.48,0,1,0,1.42a48.16,48.16,0,0,0,2.22,14.31,72.32,72.32,0,0,0,8.7,18A131.44,131.44,0,0,0,44.86,147c1.45-.53,3.16-1.16,5.07-1.84,4.44-1.6,9.92-3.58,15.68-5.45,1.93-.63,3.88-1.24,5.83-1.82s3.77-1.1,5.64-1.72,4.07-1.35,6.31-2a49.36,49.36,0,0,1,6.94-1.61,30.44,30.44,0,0,1,4.35-.33,22.77,22.77,0,0,1,2.6.14,23.29,23.29,0,0,1,10.85,3.81,16,16,0,0,1,4.71,5l1.93.49c1.4.36,2.83.75,4.14,1.14a26.46,26.46,0,0,1,3.82,1.38,9.68,9.68,0,0,1,1.88,1.16A16.77,16.77,0,0,1,130,153a23.13,23.13,0,0,1,1.14,7.58c0,4.29-.67,7.9-.63,10.12a7.79,7.79,0,0,0,.15,1.72c.52,2.32,2.16,4.78,4.94,8s6.39,6.95,9,12.54a72.61,72.61,0,0,1,6.23,30.5,97.21,97.21,0,0,1-.88,12.9q-.39,2.92-.8,5.88c-.26,2-.53,3.95-.8,5.92s-.56,4-.89,5.91l0,.16c-.35,1.84-.73,3.56-1.16,5.17-.31,1.2-.63,2.32-.93,3.38a63.21,63.21,0,0,1,4.64,5.54c1.16,1.53,2.31,3.18,3.44,4.86s2.18,3.24,3.2,4.8,2.07,3.19,3.06,5a45.43,45.43,0,0,1,2.66,5.47c.32.69,1.54,3.36,3.2,7.19,3.8,8.8,9.89,23.41,12.92,34.75.17.65.33,1.29.49,1.93l3-1.41c2.76-1.31,5.75-2.75,8.93-4.4a81.28,81.28,0,0,0,9.53-5.77,72.1,72.1,0,0,0,9.76-8.45,34.36,34.36,0,0,0,3.64-4.77,37.45,37.45,0,0,0,2.86-6l0-.09c1-2.47,2-5.06,3.14-7.74a8.06,8.06,0,0,1,3-3.58h0l.05,0,.32-.23c.29-.21.72-.52,1.13-.88l.16-.13c.42-.34.83-.7,1.14-1a4.09,4.09,0,0,0,.45-.5,8,8,0,0,1,4.43-3.7l.05,0c.1,0,.32-.14.59-.28a7.14,7.14,0,0,0,1.72-1.3,4.66,4.66,0,0,0,1.22-2.21,10.43,10.43,0,0,0,.27-2.42v-.06s0-.07,0-.1a19,19,0,0,0-.47-4.06,8,8,0,0,1,4.38-8.88h0l0,0,.24-.12c.24-.12.61-.31,1.09-.58.95-.53,2.32-1.33,3.89-2.4a44.12,44.12,0,0,0,4.31-3.46,25.46,25.46,0,0,0,4.66-5.48,28.09,28.09,0,0,0,3.41-9.15,48.66,48.66,0,0,0,.94-7q.12-1.73.12-3.57c0-1.45-.06-3-.18-4.53a84.27,84.27,0,0,0-4.14-19.72,8,8,0,0,1-.11-4.66c.06-.18,1.22-4.34,3.49-10.16a115,115,0,0,1,10.05-20.18c4.37-6.65,9.74-13.18,17.71-16.61l.52-.33c.65-.4,1.61-1,2.81-1.86a90.59,90.59,0,0,0,9.15-7.36A70.5,70.5,0,0,0,308.14,133.21ZM303.4,262.07c-.76.33-1.56.64-2.46.93a22,22,0,0,1-2.74.64l-.11,0-.69.1-.15.16c-.43.42-.84.85-1.23,1.3a6.23,6.23,0,0,0-.74,1.24c-.09.31-.2.73-.31,1.23s-.3,1.37-.47,2.23a6.16,6.16,0,0,1-.37,1.15,18.7,18.7,0,0,1-2.71,4.28l-.2.22c-.89,1-1.69,1.79-2.31,2.47h0l-.22.27a9.41,9.41,0,0,0-.54.79,13.36,13.36,0,0,0-.45,1.58c0,.21,0,.43,0,.65v.18c.06.5.14,1.06.25,1.67s.28,1.35.44,2.12l.08.53c.09.91.15,1.82.17,2.74a12.71,12.71,0,0,0,.2,1.81,6.07,6.07,0,0,0,.38.77l.09.14h0l0,0,.16.06h.06c.58-.71,1.29-1.57,2.13-2.52,1.28-1.46,2.74-3,4.28-4.65A34.8,34.8,0,0,0,300,279a27.13,27.13,0,0,0,1.72-3.21,39.2,39.2,0,0,0,1.54-4l1.61-5c.53-1.65,1-3.27,1.46-4.78.2-.68.38-1.34.55-2-.35.23-.71.46-1.08.68A24.89,24.89,0,0,1,303.4,262.07Z"/><path d="M322.11,132.93c-1.57-.62-5.42,8-15.67,18.32a119.72,119.72,0,0,1-20,15.9,129.2,129.2,0,0,0-12.88,9.38c-.11.09-.22.18-.32.28-4.43,3.89-8.91,8.95-11.46,15.4a32.47,32.47,0,0,0-2.38,9.88,43.11,43.11,0,0,0,.3,9.42,144.89,144.89,0,0,0,3.58,15.85,62.09,62.09,0,0,1,1.65,8.79,26.23,26.23,0,0,1-2.32,14.28,34.89,34.89,0,0,1-2.46,4.64,48.7,48.7,0,0,1-7.19,8.71l-1.19,1.15c-2.22,2.15-3.51,3.43-3.19,4s2.82.29,6.85-1.72a35.41,35.41,0,0,0,13.93-13.08l.11-.16a35.58,35.58,0,0,0,4.67-13.28,51.49,51.49,0,0,0-1-15.52c-.36-1.78-.74-3.57-1.12-5.35-.43-2.06-.84-4.12-1.17-6.15-.78-4.77-1.08-9.4-.1-13.73a20.85,20.85,0,0,1,1.19-3.66,24.58,24.58,0,0,1,2-4c4.23-6.76,11.56-11.9,18.29-16.94a97,97,0,0,0,20.06-19.06,66.33,66.33,0,0,0,6.53-10.38C322.59,138.37,323,133.15,322.11,132.93ZM241.93,271.4c-.17-.16-.31-.23-.4-.19-.37.14-.18,1.54.26,4.07.15,1,.37,2.19.56,3.55a27.89,27.89,0,0,1,.15,7.15,8.58,8.58,0,0,1-2.78,5.65c-1.74,1.47-4.15,2-7.88,2.7a7.41,7.41,0,0,0-2.12.79,4.45,4.45,0,0,0-1.07,1,4.74,4.74,0,0,0-.67,1.34l-.22.6c-.29.8-.57,1.63-.88,2.45-.69,1.63-1.4,3.3-2.27,5a58.8,58.8,0,0,1-6.46,9.91,72,72,0,0,1-20.74,17.44,68.13,68.13,0,0,1-12.4,5.5l-1.36.42a33.8,33.8,0,0,1-7.18,1.36c-2.37.24-4.24-.47-3.72-.43-.31-.27-1-3.08-1.13-5.74-.28-2.8-.08-5.74-1-9.77a54.78,54.78,0,0,0-8.58-18.66c-.86-1.23-1.7-2.4-2.51-3.53a79.51,79.51,0,0,1-7.58-12.1,92.1,92.1,0,0,1-3.73-8.8c-.6-1.44-1.27-2.79-1.95-4.1-1-1.9-2-3.68-2.95-5.39a52.46,52.46,0,0,1-4-8.14,18.46,18.46,0,0,1-.84-6c0-.55,0-1.11,0-1.67a73.49,73.49,0,0,1,2.44-13c.41-1.65.84-3.31,1.25-5a91.08,91.08,0,0,0,2-9.84,43.67,43.67,0,0,0,.37-5.31c0-1.6,0-3,0-4.57a55.12,55.12,0,0,0-.55-10,25.26,25.26,0,0,0-4-10.15A40,40,0,0,0,134,191c-2.43-2.28-4.84-4.19-6.68-5.88a9.19,9.19,0,0,1-2.91-4.62,14.39,14.39,0,0,1-.4-2.9,26.65,26.65,0,0,1,.07-3.54c.26-5,.45-10-1-15.28-.12-.45-.24-.89-.39-1.34a18.94,18.94,0,0,0-3.59-6.19,18.36,18.36,0,0,0-1.3-1.34A24.18,24.18,0,0,0,111,145.6a50.52,50.52,0,0,0-6.67-2.31c-2.11-.59-4.15-1-6.13-1.47a39.15,39.15,0,0,0-7.94-1.19,36,36,0,0,0-4,0c-7.58.49-13.47,2.61-18.17,4.08-9.32,3.2-14.54,4.37-14.49,5.13,0,.45,2,.7,5.7.43a81.09,81.09,0,0,0,9.85-1.44c4.86-.86,10.72-2.23,17.22-2.09a34.13,34.13,0,0,1,9,1.43l1.22.39c.83.23,1.67.48,2.51.73a53.31,53.31,0,0,1,8.63,3.28,13.44,13.44,0,0,1,6.07,5.33,10.81,10.81,0,0,1,.91,2.2,15,15,0,0,1,.42,1.87,43.27,43.27,0,0,1,0,11.32c-.07.6-.12,1.23-.17,1.87a26.43,26.43,0,0,0,.43,7.46,18.77,18.77,0,0,0,5.22,9.29c2.31,2.32,4.43,4,6.28,5.81a35.38,35.38,0,0,1,4.71,5.51l.13.19c2,3,2.58,6.59,2.6,11.14,0,1,0,2.12-.06,3.27,0,1.48-.07,3.16-.1,4.65a31,31,0,0,1-.34,4,82,82,0,0,1-1.86,8.66c-1.51,6-3.59,12.42-4.16,19.91a32.46,32.46,0,0,0,.65,9.51,25.11,25.11,0,0,0,.68,2.42,42.52,42.52,0,0,0,1.7,4.11c1,2.06,2,4,3.05,5.83a82.7,82.7,0,0,1,4.36,8.33,97.47,97.47,0,0,0,4.06,9.43c3,6.35,7.64,12.16,11,16.85a53.24,53.24,0,0,1,5.1,8.83,36.33,36.33,0,0,1,1.87,5.17c.09.34.2.68.28,1,.55,1.93.58,5.12.9,8.25.41,2.71.37,5.58,2.27,9.15a19.06,19.06,0,0,0,1.23,2,10.77,10.77,0,0,0,6.71,3.78,21,21,0,0,0,5.59.17c.74-.07,1.46-.17,2.17-.27a46.19,46.19,0,0,0,7.11-1.73,73.64,73.64,0,0,0,15.54-7.3,78.12,78.12,0,0,0,20.35-18c.67-.86,1.33-1.73,1.95-2.61a63,63,0,0,0,6.58-11.6c.85-1.94,1.53-3.88,2.15-5.76q.36-1.26.69-2.49c1-.26,2.06-.57,3.16-.95a15.55,15.55,0,0,0,6.41-3.8,11.65,11.65,0,0,0,2.45-3.82,14.31,14.31,0,0,0,1-5.32,28.22,28.22,0,0,0-2.86-11.64A12.17,12.17,0,0,0,241.93,271.4Zm-8.88,29c-.18.09-.12.05,0,0Zm1-1.26c0-.13,0-.11,0,0ZM78.66,10.92c-.09,0-.13.17-.11.36A2.5,2.5,0,0,0,80.06,13a9.43,9.43,0,0,0,3.78.89,23.85,23.85,0,0,0,2.55,0c5.29-.19,12.4-1.74,21-3.07s18.94-2.53,29.06.11h0c-.17.38-.38.79-.59,1.22s-.57,1.16-.89,1.81-.76,1.55-1.15,2.51l0,.09,0,0c-.48,6-.12,1.72-.22,3.08l.11.41.27.8a6.68,6.68,0,0,0,.61,1.28,12.12,12.12,0,0,0,1.3,1.82c3.32,3.52,6.33,5,9.54,6.82a85.37,85.37,0,0,0,9.78,4.35c6.84,2.43,13.21,4.58,21.22,4.76a16.67,16.67,0,0,0,3.49-.39,10.47,10.47,0,0,0,4.27-2A10.85,10.85,0,0,0,188,30.17c0-.12,0-.25,0-.36,0-.37.06-.73.07-1.08.53.25,1.06.5,1.58.73l.32.14a55,55,0,0,0,8,2.81,56.18,56.18,0,0,0,15.53,1.84,78.78,78.78,0,0,0,10.24-.92c4.54-.7,8.21-1.59,11-1.95a10.66,10.66,0,0,1,4.78.08c.8.29,1.29.68,1.65.75a.43.43,0,0,0,.23,0c.32-.08.54-1.07-.49-2.44a3.62,3.62,0,0,0-.55-.56,10.38,10.38,0,0,0-5.61-2.06c-5.39-.66-12.54.2-20.94-.6a57.3,57.3,0,0,1-9.66-1.71c-1.16-.31-2.34-.67-3.51-1.08a50.6,50.6,0,0,1-6.8-2.94c-1.13-.59-2.25-1.23-3.37-1.92l-1.68-1.06A10.49,10.49,0,0,0,185,16.17a6.27,6.27,0,0,0-2.47,0,5.93,5.93,0,0,0-3.28,1.92,6.77,6.77,0,0,0-1.56,3.73,19.31,19.31,0,0,0-.06,3.15c.05,1.1.08,2.05.05,2.82a7.31,7.31,0,0,1-.07.88,2.8,2.8,0,0,1-.1.48,8.83,8.83,0,0,1-1.21.06c-4.86-.16-11.37-2.08-17.27-4.27-1.84-.69-3.64-1.44-5.38-2.23-1.05-.47-2.07-.95-3.06-1.45l-.2-.1a34.9,34.9,0,0,1-5.53-3.37c.55-1.17,1.16-2.46,1.72-4a14.51,14.51,0,0,0,.83-3.51,8.73,8.73,0,0,0-.08-2.4,7.21,7.21,0,0,0-1.71-3.63,8.46,8.46,0,0,0-4.39-2.49c-.82-.21-1.62-.47-2.43-.61-13-2.66-24.26-.12-33,2.12-5.5,1.5-10.19,3.09-14,4.42-2.32.8-4.35,1.49-6.06,2C81,11.34,79.33,10.69,78.66,10.92ZM140.2,9c.1,0,.08,0,0,0ZM56.67,25.55A7.56,7.56,0,0,0,56.94,21a14,14,0,0,0-.83-2.29c-.08-.19-.13-.31-.15-.34h0a4.71,4.71,0,0,1,.29-.41,12,12,0,0,1,2-1.81c6.62-4.82,13.58-8,17.86-10.5,2-1.12,3.57-2.06,4.68-2.82,1.35-.93,2-1.6,1.86-2-.27-.7-3.14-.42-8.12.86-5,1.44-12,3.17-20.66,8.08a19.71,19.71,0,0,0-3.41,2.59,8.8,8.8,0,0,0-2.9,5.82,11,11,0,0,0,.73,4.06l0,0a15,15,0,0,1-2.43,1.56l-.4.21-.1.05,0,0-.63.42,0,0-.22.16-.85.64-1.72,1.3c-2.3,1.75-4.65,3.6-7,5.6C25.47,40.2,15.63,50,8.29,62.87A64,64,0,0,0,.75,83.37,51.54,51.54,0,0,0,1.39,104,57.09,57.09,0,0,0,8.55,121c.43.68.62,1,1.24,2l1.11,1.53.13.18c.68,1,1.35,1.9,2,2.85,1.4,2,2.77,4,4.13,5.84,5.38,7.59,11.27,13,15.86,15.69a28.7,28.7,0,0,0,5.17,2.52c1.52.53,2.45.57,2.63.24.88-1.52-8.88-7.14-17.18-22.66-1.11-1.93-2.25-4-3.49-6.14-.61-1.08-1.27-2.19-1.94-3.32l-1-1.71c-.08-.13-.3-.56-.51-1l-.25-.49a52.66,52.66,0,0,1-5.19-14.56c-2.14-10.54.15-22.54,6.58-33.67S33,47.71,41.47,39.81c2.12-2,4.26-3.87,6.36-5.67L49.4,32.8l.78-.67.1-.09.23-.14a21.71,21.71,0,0,0,4.11-3.21A9.86,9.86,0,0,0,56.67,25.55Zm-8.28-2.63s0-.11,0-.3C48.41,22.8,48.43,22.9,48.39,22.92Zm271.3,96.18c-3.61-.5-8.84-.48-14.69-1.22a42.13,42.13,0,0,1-4.4-.8,40.22,40.22,0,0,1-14-6.43A84.16,84.16,0,0,1,268.42,93c-2-2.6-3.81-5.28-5.54-8-3.09-4.83-5.86-9.72-8.52-14.36-1.1-1.92-1.9-3.34-3.19-5.55a28.11,28.11,0,0,0-4.53-5.14c-2.89-2.68-5.57-4.78-7.36-6.7a11.28,11.28,0,0,1-1.56-2c0-.19-.65.34.48-1.31a25.9,25.9,0,0,0,3.07-6.36c1.14-3.89.36-6.18-.33-6.19s-1.52,1.76-3.49,4.31a41.84,41.84,0,0,1-4,4.42,8.1,8.1,0,0,0-2.28,3.26,5.18,5.18,0,0,0-.35,2.59,12.37,12.37,0,0,0,2.36,6,92.76,92.76,0,0,0,7,8.29,21.55,21.55,0,0,1,2.8,3.78c.57,1.3,1.65,3.51,2.52,5.3,3.7,7.57,8,16.07,14.27,24.26.5.67,1,1.31,1.55,2a78.71,78.71,0,0,0,19.87,17.58,43.05,43.05,0,0,0,9.85,4.52,40.6,40.6,0,0,0,13.61,2,65.7,65.7,0,0,0,7.27-.66c3.29-.48,6-1.12,8.06-1.6,3.46-.86,5.38-1.57,5.38-2.33S323.32,119.54,319.69,119.1Zm-3.58,130.45c-.78,0-1.5,1.11-2.31,3.13s-1.71,5-2.82,8.63c-2.3,7.1-5.3,16.46-12,25.23a37.85,37.85,0,0,1-4.7,5.67c-.86.88-1.77,1.73-2.7,2.55l-.34.31-.18.16-.08.07v0l-.21.14c-.39.25-.75.45-1,.61-.61.3-.82.35-.91.41s-.07,0-.12,0h0c.1.06-.14,0,0,0a2.11,2.11,0,0,1-.64-.35,7.54,7.54,0,0,1-2.44-3.14,14.82,14.82,0,0,1-1.11-3.62c-.06-1.27,0-2.52.06-3.6.1-2.17-.11-3.61-.83-3.85-.38-.13-.85,0-1.42.49a10.21,10.21,0,0,0-1.76,1.93,15.45,15.45,0,0,0-2.06,4,12.21,12.21,0,0,0-.56,3.31,21.74,21.74,0,0,0,.22,3.37,14.54,14.54,0,0,0,3.65,7.71,10.15,10.15,0,0,0,2,1.73l.57.4.14.1a3.44,3.44,0,0,0,.5.24l.39.16a9.68,9.68,0,0,0,1.6.53,11.46,11.46,0,0,0,6.39-.45,21.47,21.47,0,0,0,2.45-1.06l1.07-.59c.22-.15-.48.35.5-.35h0l0,0,.05,0,.11-.08.21-.16.43-.33c1.14-.86,2.3-1.8,3.44-2.84a40.13,40.13,0,0,0,6.41-7.37c7.64-10,10.19-22.1,10.55-30,.07-1.65.06-3.16,0-4.53C318.37,252.72,317.25,249.61,316.11,249.55ZM285.35,273.8a2.29,2.29,0,0,0,1.08.87c1.5.49,3.44-2.76,4.55-7.27.62-2.18,1.31-4.43,2.4-5.79a14.44,14.44,0,0,1,4.43-3.49l1.16-.65a62.6,62.6,0,0,0,7.86-4.62c.43-.32.85-.65,1.27-1a16.29,16.29,0,0,0,5.22-7.47,11,11,0,0,0,.43-1.78c.39-3.88-.48-6.35-1.5-7.63a2.16,2.16,0,0,0-1.82-1c-.77.09-1.31,1-1.89,2.16a32.51,32.51,0,0,1-2.15,4.14l0,.05c-1.69,2.58-5.46,4.09-12.61,7.59-3.41,1.78-7.34,4.78-9.24,9a18,18,0,0,0-1.24,10.08c.05.28.1.53.15.8C284,270.74,284.58,272.73,285.35,273.8Z"/></svg>