<svg xmlns="http://www.w3.org/2000/svg" width="1080" height="1080" version="1.0"><path d="m1060 540-.08 12.88-1.28 25.76-2.56 25.52-3.76 25.28-5.04 24.96-6.16 24.64-7.36 24.32-8.56 23.84-9.76 23.44-10.8 22.96-12 22.4-13.04 21.84-14.16 21.2-15.2 20.56L934 879.44l-17.28 19.04-9.04 9.2-9.2 9.04L879.44 934l-19.84 16.24-20.56 15.2-21.2 14.16L796 992.64l-22.4 12-22.96 10.8-23.44 9.76-23.84 8.56-24.32 7.36-24.64 6.16-24.96 5.04-25.28 3.76-25.52 2.56-25.76 1.28-12.88.08-12.88-.08-25.76-1.28-25.52-2.56-25.28-3.76-24.96-5.04-24.64-6.16-24.32-7.36-23.84-8.56-23.44-9.76-22.96-10.8-22.4-12-21.84-13.04-21.2-14.16-20.56-15.2L200.56 934l-19.04-17.28-9.2-9.04-9.04-9.2L146 879.44l-16.24-19.84-15.2-20.56-14.16-21.2L87.36 796l-12-22.4-10.8-22.96-9.76-23.44-8.56-23.84-7.36-24.32-6.16-24.64-5.04-24.96-3.76-25.28-2.56-25.52-1.28-25.76L20 540l.08-12.88 1.28-25.76 2.56-25.52 3.76-25.28 5.04-24.96 6.16-24.64 7.36-24.32 8.56-23.84 9.76-23.44 10.8-22.96 12-22.4 13.04-21.84 14.16-21.2 15.2-20.56L146 200.56l17.28-19.04 9.04-9.2 9.2-9.04L200.56 146l19.84-16.24 20.56-15.2 21.2-14.16L284 87.36l22.4-12 22.96-10.8 23.44-9.76 23.84-8.56 24.32-7.36 24.64-6.16 24.96-5.04 25.28-3.76 25.52-2.56 25.76-1.28L540 20l12.88.08 25.76 1.28 25.52 2.56 25.28 3.76 24.96 5.04 24.64 6.16 24.32 7.36 23.84 8.56 23.44 9.76 22.96 10.8 22.4 12 21.84 13.04 21.2 14.16 20.56 15.2L879.44 146l19.04 17.28 9.2 9.04 9.04 9.2L934 200.56l16.24 19.84 15.2 20.56 14.16 21.2L992.64 284l12 22.4 10.8 22.96 9.76 23.44 8.56 23.84 7.36 24.32 6.16 24.64 5.04 24.96 3.76 25.28 2.56 25.52 1.28 25.76.08 12.88z" style="fill:#ffb612;fill-rule:nonzero;fill-opacity:1;stroke:#000;stroke-width:6px;stroke-linecap:butt;stroke-linejoin:miter;stroke-miterlimit:4;stroke-dasharray:none;stroke-opacity:1"/><path d="m908 840.64-7.68 9.12-15.92 17.44-16.8 16.56-17.44 15.68-18.24 14.8-18.8 13.84-19.52 12.88-20.08 11.92-20.56 10.88-21.12 9.92-21.68 8.88-22 7.76-22.48 6.72-22.8 5.68-23.12 4.48-23.44 3.44-11.76 1.2-11.84 1.04-23.68 1.04-23.6-.16-23.44-1.2-23.28-2.48-23.12-3.52-22.88-4.64-22.64-5.76-22.24-6.88-22-7.92-21.52-9.04-21.12-10.08-20.64-11.12-20.08-12.16-19.6-13.12-18.96-14.16-9.2-7.52-9.04-7.68-17.52-15.92-16.56-16.8-15.68-17.44-14.8-18.16-13.84-18.88-12.88-19.52-11.92-20-10.88-20.64-9.92-21.12-8.88-21.6-7.76-22.08-6.72-22.4-5.68-22.88-4.48-23.12-3.44-23.44-1.2-11.76-.96-11.84-1.12-23.68.16-23.52 1.28-23.52 2.4-23.28 3.52-23.12 4.64-22.88 5.84-22.64 6.8-22.24 8-21.92 8.96-21.6 10.08-21.12 11.12-20.64 12.16-20.08 13.12-19.52 14.16-18.96 7.52-9.28 7.68-9.04 15.92-17.44 16.8-16.64 17.44-15.68 18.24-14.8 18.8-13.84 19.52-12.88 20.08-11.84 20.56-10.96 21.12-9.92 21.68-8.8 22-7.84 22.48-6.72 22.8-5.68 23.12-4.48 23.44-3.36 11.76-1.28 11.84-.96 23.68-1.04 23.6.08 23.44 1.28 23.28 2.4 23.12 3.52 22.88 4.72 22.64 5.76 22.24 6.88 22 7.92 21.52 8.96L756 109.28l20.64 11.12 20.08 12.16 19.6 13.12 18.96 14.24 9.2 7.44 9.04 7.68 17.52 16 16.56 16.72 15.68 17.52 14.8 18.16 13.84 18.88 12.88 19.44 11.92 20.08 10.88 20.64 9.92 21.12 8.88 21.6 7.76 22 6.72 22.48 5.68 22.8 4.48 23.12 3.44 23.44 1.2 11.84 1.04 11.84 1.04 23.6-.16 23.6-1.28 23.44-2.4 23.28-3.52 23.12-4.64 22.88-5.84 22.64-6.8 22.32-8 21.92-8.96 21.52-10.08 21.12-11.12 20.64-12.16 20.08-13.12 19.6-14.16 18.96-7.52 9.2z" style="fill:#ffb612;fill-rule:nonzero;fill-opacity:1;stroke:#000;stroke-width:6px;stroke-linecap:butt;stroke-linejoin:miter;stroke-miterlimit:4;stroke-dasharray:none;stroke-opacity:1"/><path d="m874.32 571.76 1.68-1.6 10.8-11.76 9.52-11.84 7.52-10.88 4.88-7.92 4.56-8.48 4.24-9.04 3.52-9.36 2.8-9.76 1.92-10 .72-10.24-.08-5.2-3.28-4.56-.64.4-6.56 3.36-7.68 3.12-5.76 1.84-5.92 1.12-5.84.32-2.72-.4-8.48 5.2-.24-.16-2.56-1.2-3.6-.4-3.12.4-3.6 1.28-4.16 2.32L860 480l-.32-.56-3.52-4.48-4.4-4.08-3.52-2.24-3.92-1.28h-3.2l-2.16.48-1.04.48 7.76-7.84-.16-.48-1.92-3.68-2.72-3.68-4.32-4.64-6.08-5.44-8.4-6-10.8-6.48-6.56-3.44-.88-.96-6.32-9.92-6.16-12.08-3.6-8.24-14.32-9.12-.96-6.8-2.88-21.2-1.04-1.28-6.32-6-4.32-2.56-3.04-1.04-1.6-.16-.16-.72-1.2-9.04-.56-8.48h-.24l-2.48-1.28-3.36-3.12-2.8-3.44-3.2-4.88-3.6-6.56-1.92-4.08-1.52-2.72-7.68-12.56-3.76-5.36-1.92-2.32-.72-.48-5.2-9.76 2.64-3.92 1.44 2.4 8.56 11.76 5.12 5.36 3.44 2.48 1.6.8.32-.48 1.84-3.36 1.36-3.68.96-4.72.24-5.84-.88-6.88-2.48-7.84-2-4.32-.4.16-4.32 1.28-5.6.56-4.64-.24-5.36-.96-5.84-1.92-3.12-1.44-2.08.4-10.8 3.04-5.76 2.24-3.36 1.76-1.44.96-.16-.16-2.24-1.44-3.28-1.2-2.8-.4h-3.44l-4 .64-2.32.64.16-.32-.32-1.76-1.2-1.44-2.56-1.52-4.56-1.36-7.04-.88-9.92-.16-6.4.24 10.4-2.56-21.52-3.92.4-.24.96-2-.08-2.24-.56-1.36-.56-.72-2.56-1.2-4-.64h-4.96l-5.52.88-5.6 2.08-3.92 2.4-2.48 2-2.16 2.48-1.92 2.8-.8 1.6.24.32 1.44 1.92.8 1.92.4 2.16-.48 2.4-1.76 2.4-3.36 2.24-2.48.96-2.32-1.44-11.04-5.28-5.28-1.84-5.6-1.36-5.6-.64-2.72.16-.88-.8-4.08-5.2-1.6-3.36-.56-2.4-.08-1.28-1.44-.8-7.52-2.32-3.76-.56-4.16-.16-4.32.64-2.16.64-.24-.4-2.48-3.12-3.36-2.72-2.8-1.52-3.2-.8-3.6.16-1.92.56-.4-.24-2.4-1.84-1.6-1.84-1.04-2.32.08-2.64 1.68-3.04 3.92-3.28 3.04-1.68.08-.32.48-2.8-.4-3.2-.8-2.4-1.6-2.32-2.56-2.24-1.76-1.04.8-.08 2.8-1.76 1.12-1.36.96-1.92.72-2.48.16-1.52-.4-.16-4-1.2-4.8-.48-3.68.24L488 190l-4 2.16-2 1.6-.32-.24-3.76-1.68-5.28-.96-4.48-.16-5.36.64-6.08 1.68-3.36 1.36-.88-.32-6.24-1.76-6.16-1.2-7.52-.64-8.48.24-6.72 1.12-4.56 1.2-4.64 1.68-4.56 2.24-2.24 1.36H389.6l-.64.48-4.88 2.32-4.8 1.52-5.92.88-5.04-.24-3.52-.64-3.6-1.12-3.76-1.76-3.76-2.32-3.76-3.12-1.92-1.92-.24.16-2.72 1.28-3.12 2.4-2.32 2.4-2.4 3.12-2.4 3.92-1.12 2.4-2.08 1.44-12.64 7.36-7.6 3.6-5.12 1.84-2.48.72-.4.32-3.2 4-3.12 5.12-1.92 4.16-1.36 4.64-.56 5.12.16 2.64-.4.48-4.64 4.56-6.4 4.88-5.28 3.36-6.24 3.04-7.04 2.4-3.84.8-1.2.8-6.16 5.92-2.96 4.4-1.52 3.36-.56 1.76h-.32l-2.72.64-2.56 1.04-2.96 1.92-3.2 2.96-3.28 4.24-3.04 5.76-1.44 3.6-.72.64-6.64 5.84-7.12 7.36-4.88 5.68-4.48 6.08-3.52 6.4-1.2 3.2.4.88 2.08 6.96.96 7.36-.08 7.04-.48 5.28-1.04 5.76-1.6 6.16-2.32 6.72-3.12 7.12-3.92 7.52-4.96 7.92-2.88 4.08 7.84 13.68-5.84 15.6.8.32 5.6 3.2 5.12 4.08 5.92 6.16 4.48 6.24 2.96 4.96 2.8 5.68 2.72 6.4 2.4 7.2 2.08 8 .88 4.4 11.36 8.08 40 28.32 1.68-.48 10.96-2.72 10.16-1.92 11.52-1.6 11.68-.64 8.32.48 5.12.88 4.56 1.44 4 2 1.6 1.28 2.32-1.28 15.04-6.64 10.08-3.52 7.12-2.16 7.36-1.68 7.44-1.12 7.2-.32 6.72.56 4.72 1.28 2.88 1.12 2.72 1.52 2.4 1.92 2.16 2.24 1.92 2.72 1.52 3.12 1.28 3.52.4 2v.16l.88 1.2 1.68.8 3.12.56h4.96l7.2-.72 9.84-1.84 6.16-1.52.72.48 3.92 3.36 3.12 3.52 2.64 4.64 1.28 4.16.4 3.12-.08 3.28-.64 3.52-1.36 3.76-2.08 3.92-1.36 2.08.08.32.48 4-.16 4.96-.64 3.76-1.36 4.08-2.16 4.16-1.44 2.08 1.6 5.2 1.6 7.2 1.44 1.36 9.36 9.68 8.16 9.36 8.72 11.04 6.24 8.96 3.68 6.16 3.2 6.24 2.64 6.16 1.84 6 .88 5.76.08 2.8-4.56 3.92.4.72 3.44 7.28 3.04 8.24 1.6 5.84.88 5.68-.08 3.92-.48 2.4-.4 1.04-.88 1.92-2.48 2.88-2.88 2.56-3.12 3.28-3.04 5.04-2.72 7.68-2.16 11.36-1.36 16.08-.16 10.32 3.68 5.28 14.08 22.4 5.2 9.52 4.24 8.96 2 5.76.64 3.28.08 1.44-.16 1.12-.24 7.76.4 7.44 1.36 8.8 1.92 7.12 1.68 4.8 2.16 4.88 2.64 4.8 3.2 4.64 3.76 4.4 2.08 2.16 1.68 2.96 7.28 14.64 2.88 6.72 1.12 3.28.08.96.4.24 2.8 2.48 2.16 3.28.72 2.72-.24 3.04-1.68 3.36-1.52 1.84v.56l.96 3.84 1.28 3.36 2 3.68 2.88 3.52 4 2.88 3.84 1.52 2.88.64 1.68.16.64-.32 6.96-2.88 9.04-2.32 7.28-1.12 8.16-.32 8.8.8 4.64.96 2.32.48 4.72.32 4.72-.48 4.72-1.04 4.72-1.68 4.72-2.24 4.56-2.72 4.56-3.12 6.56-5.28 8.08-8 7.28-8.56 6.16-8.48 2.56-4.08 15.6-11.76.4-.48 3.36-5.28 2.64-6.16 1.12-4.64.16-4.72-.72-3.44-1.04-2.16-.72-1.04.48-1.2 3.12-4.48 1.84-1.76 2.4-1.6 2.88-1.12 1.68-.24h.96l5.76-1.36 3.52-1.68 2.32-1.6 2.32-2.08 2.08-2.72 1.76-3.28 1.36-3.92.88-4.8.24-5.52-.56-6.48-1.36-7.36-1.04-4.16-.4-.24-1.52-1.84-.64-2 .24-2.56 1.84-3.12 4-3.52 6.72-4.08 4.72-2.16 1.04-.64 5.36-4.56 2.64-3.28 1.44-2.48.56-1.36 1.12-.24 7.36-2.24 6.64-2.48 7.2-3.6 5.28-3.36 3.28-2.56 2.96-2.88 2.56-3.2 2.08-3.52 1.44-3.84.4-2-.32-14.32-.32-22.8.32-.24 1.6-1.6.96-1.6.32-2.08-.64-2.24-2.08-2.56-4-2.64-2.96-1.36.16-1.28-.8-6.16-.88-2.88-1.52-2.96-2.08-2.88-1.44-1.36.4-.48 2.16-3.12 1.52-2.96 1.04-3.44.08-3.76-.88-2.88-1.12-1.84-1.6-1.76-2.16-1.76-1.36-.8.16-.96 1.92-6.88 2.56-6.72 3.84-8 5.36-8.8 5.28-6.88 4.08-4.64 4.64-4.48 5.12-4.48 2.8-2.16.64-.96 4.8-6.56 5.04-5.84 6.32-6.48 7.52-6.32 6.4-4.32 4.56-2.4 4.72-2.08 4.96-1.6 2.56-.48z" style="fill:#ffb612;fill-rule:nonzero;fill-opacity:1;stroke:none"/><path d="m896.16 736.56-.48.88-4 6-4.24 5.36-5.68 6-7.04 5.92-6.16 4.08-4.56 2.32-4.8 2.08-5.2 1.6-2.72.56-.4.08-3.36.96-3.36 2-2.24 2.16-1.84 2.88-1.2 3.84-.24 2.4.24.64 1.04 4.88.64 4.72.24 5.36-.56 5.84-1.6 5.84-2.08 4.16-1.84 2.56-1.12 1.2-.32.32-1.92 2.64-1.52 2.8-1.44 3.76-1.04 4.72-.4 5.68.72 6.56.96 3.76-.56 1.36-.88 6.32.24 2.96.72 3.04 1.44 2.96 1.12 1.36.96.56 4.32 3.2 2.32 2.4.32.96 1.84-1.04 9.92-4.4 5.44-1.52 3.28-.32 1.36.16 2.24-4.8 12.8-29.28 10.32-24.48 4.88-12.32 1.2-1.92 5.84-12.8 2.64-8.56 1.28-6.24.32-3.2 2.96 6.72.4-.48 2.08-3.6 1.36-3.76.88-5.04v-6.24l-1.04-5.44-1.2-3.92-1.76-4.16-2.24-4.48-1.44-2.32-.64-.16-3.2.48-1.36 1.2-.56 1.36-.08.88" style="fill:none;stroke:none"/><path d="m874.32 571.76 1.68-1.6 10.8-11.76 9.52-11.84 7.52-10.88 4.88-7.92 4.56-8.48 4.24-9.04 3.52-9.36 2.8-9.76 1.92-10 .72-10.24-.08-5.2-3.28-4.56-.64.4-6.56 3.36-7.68 3.12-5.76 1.84-5.92 1.12-5.84.32-2.72-.4-8.48 5.2-.24-.16-2.56-1.2-3.6-.4-3.12.4-3.6 1.28-4.16 2.32L860 480l-.32-.56-3.52-4.48-4.4-4.08-3.52-2.24-3.92-1.28h-3.2l-2.16.48-1.04.48 7.76-7.84-.16-.48-1.92-3.68-2.72-3.68-4.32-4.64-6.08-5.44-8.4-6-10.8-6.48-6.56-3.44-.88-.96-6.32-9.92-6.16-12.08-3.6-8.24-14.32-9.12-.96-6.8-2.88-21.2-1.04-1.28-6.32-6-4.32-2.56-3.04-1.04-1.6-.16-.16-.72-1.2-9.04-.56-8.48h-.24l-2.48-1.28-3.36-3.12-2.8-3.44-3.2-4.88-3.6-6.56-1.92-4.08-1.52-2.72-7.68-12.56-3.76-5.36-1.92-2.32-.72-.48-5.2-9.76 2.64-3.92 1.44 2.4 8.56 11.76 5.12 5.36 3.44 2.48 1.6.8.32-.48 1.84-3.36 1.36-3.68.96-4.72.24-5.84-.88-6.88-2.48-7.84-2-4.32-.4.16-4.32 1.28-5.6.56-4.64-.24-5.36-.96-5.84-1.92-3.12-1.44-2.08.4-10.8 3.04-5.76 2.24-3.36 1.76-1.44.96-.16-.16-2.24-1.44-3.28-1.2-2.8-.4h-3.44l-4 .64-2.32.64.16-.32-.32-1.76-1.2-1.44-2.56-1.52-4.56-1.36-7.04-.88-9.92-.16-6.4.24 10.4-2.56-21.52-3.92.4-.24.96-2-.08-2.24-.56-1.36-.56-.72-2.56-1.2-4-.64h-4.96l-5.52.88-5.6 2.08-3.92 2.4-2.48 2-2.16 2.48-1.92 2.8-.8 1.6.24.32 1.44 1.92.8 1.92.4 2.16-.48 2.4-1.76 2.4-3.36 2.24-2.48.96-2.32-1.44-11.04-5.28-5.28-1.84-5.6-1.36-5.6-.64-2.72.16-.88-.8-4.08-5.2-1.6-3.36-.56-2.4-.08-1.28-1.44-.8-7.52-2.32-3.76-.56-4.16-.16-4.32.64-2.16.64-.24-.4-2.48-3.12-3.36-2.72-2.8-1.52-3.2-.8-3.6.16-1.92.56-.4-.24-2.4-1.84-1.6-1.84-1.04-2.32.08-2.64 1.68-3.04 3.92-3.28 3.04-1.68.08-.32.48-2.8-.4-3.2-.8-2.4-1.6-2.32-2.56-2.24-1.76-1.04.8-.08 2.8-1.76 1.12-1.36.96-1.92.72-2.48.16-1.52-.4-.16-4-1.2-4.8-.48-3.68.24L488 190l-4 2.16-2 1.6-.32-.24-3.76-1.68-5.28-.96-4.48-.16-5.36.64-6.08 1.68-3.36 1.36-.88-.32-6.24-1.76-6.16-1.2-7.52-.64-8.48.24-6.72 1.12-4.56 1.2-4.64 1.68-4.56 2.24-2.24 1.36H389.6l-.64.48-4.88 2.32-4.8 1.52-5.92.88-5.04-.24-3.52-.64-3.6-1.12-3.76-1.76-3.76-2.32-3.76-3.12-1.92-1.92-.24.16-2.72 1.28-3.12 2.4-2.32 2.4-2.4 3.12-2.4 3.92-1.12 2.4-2.08 1.44-12.64 7.36-7.6 3.6-5.12 1.84-2.48.72-.4.32-3.2 4-3.12 5.12-1.92 4.16-1.36 4.64-.56 5.12.16 2.64-.4.48-4.64 4.56-6.4 4.88-5.28 3.36-6.24 3.04-7.04 2.4-3.84.8-1.2.8-6.16 5.92-2.96 4.4-1.52 3.36-.56 1.76h-.32l-2.72.64-2.56 1.04-2.96 1.92-3.2 2.96-3.28 4.24-3.04 5.76-1.44 3.6-.72.64-6.64 5.84-7.12 7.36-4.88 5.68-4.48 6.08-3.52 6.4-1.2 3.2.4.88 2.08 6.96.96 7.36-.08 7.04-.48 5.28-1.04 5.76-1.6 6.16-2.32 6.72-3.12 7.12-3.92 7.52-4.96 7.92-2.88 4.08 7.84 13.68-5.84 15.6.8.32 5.6 3.2 5.12 4.08 5.92 6.16 4.48 6.24 2.96 4.96 2.8 5.68 2.72 6.4 2.4 7.2 2.08 8 .88 4.4 11.36 8.08 40 28.32 1.68-.48 10.96-2.72 10.16-1.92 11.52-1.6 11.68-.64 8.32.48 5.12.88 4.56 1.44 4 2 1.6 1.28 2.32-1.28 15.04-6.64 10.08-3.52 7.12-2.16 7.36-1.68 7.44-1.12 7.2-.32 6.72.56 4.72 1.28 2.88 1.12 2.72 1.52 2.4 1.92 2.16 2.24 1.92 2.72 1.52 3.12 1.28 3.52.4 2v.16l.88 1.2 1.68.8 3.12.56h4.96l7.2-.72 9.84-1.84 6.16-1.52.72.48 3.92 3.36 3.12 3.52 2.64 4.64 1.28 4.16.4 3.12-.08 3.28-.64 3.52-1.36 3.76-2.08 3.92-1.36 2.08.08.32.48 4-.16 4.96-.64 3.76-1.36 4.08-2.16 4.16-1.44 2.08 1.6 5.2 1.6 7.2 1.44 1.36 9.36 9.68 8.16 9.36 8.72 11.04 6.24 8.96 3.68 6.16 3.2 6.24 2.64 6.16 1.84 6 .88 5.76.08 2.8-4.56 3.92.4.72 3.44 7.28 3.04 8.24 1.6 5.84.88 5.68-.08 3.92-.48 2.4-.4 1.04-.88 1.92-2.48 2.88-2.88 2.56-3.12 3.28-3.04 5.04-2.72 7.68-2.16 11.36-1.36 16.08-.16 10.32 3.68 5.28 14.08 22.4 5.2 9.52 4.24 8.96 2 5.76.64 3.28.08 1.44-.16 1.12-.24 7.76.4 7.44 1.36 8.8 1.92 7.12 1.68 4.8 2.16 4.88 2.64 4.8 3.2 4.64 3.76 4.4 2.08 2.16 1.68 2.96 7.28 14.64 2.88 6.72 1.12 3.28.08.96.4.24 2.8 2.48 2.16 3.28.72 2.72-.24 3.04-1.68 3.36-1.52 1.84v.56l.96 3.84 1.28 3.36 2 3.68 2.88 3.52 4 2.88 3.84 1.52 2.88.64 1.68.16.64-.32 6.96-2.88 9.04-2.32 7.28-1.12 8.16-.32 8.8.8 4.64.96 2.32.48 4.72.32 4.72-.48 4.72-1.04 4.72-1.68 4.72-2.24 4.56-2.72 4.56-3.12 6.56-5.28 8.08-8 7.28-8.56 6.16-8.48 2.56-4.08 15.6-11.76.4-.48 3.36-5.28 2.64-6.16 1.12-4.64.16-4.72-.72-3.44-1.04-2.16-.72-1.04.48-1.2 3.12-4.48 1.84-1.76 2.4-1.6 2.88-1.12 1.68-.24h.96l5.76-1.36 3.52-1.68 2.32-1.6 2.32-2.08 2.08-2.72 1.76-3.28 1.36-3.92.88-4.8.24-5.52-.56-6.48-1.36-7.36-1.04-4.16-.4-.24-1.52-1.84-.64-2 .24-2.56 1.84-3.12 4-3.52 6.72-4.08 4.72-2.16 1.04-.64 5.36-4.56 2.64-3.28 1.44-2.48.56-1.36 1.12-.24 7.36-2.24 6.64-2.48 7.2-3.6 5.28-3.36 3.28-2.56 2.96-2.88 2.56-3.2 2.08-3.52 1.44-3.84.4-2-.32-14.32-.32-22.8.32-.24 1.6-1.6.96-1.6.32-2.08-.64-2.24-2.08-2.56-4-2.64-2.96-1.36.16-1.28-.8-6.16-.88-2.88-1.52-2.96-2.08-2.88-1.44-1.36.4-.48 2.16-3.12 1.52-2.96 1.04-3.44.08-3.76-.88-2.88-1.12-1.84-1.6-1.76-2.16-1.76-1.36-.8.16-.96 1.92-6.88 2.56-6.72 3.84-8 5.36-8.8 5.28-6.88 4.08-4.64 4.64-4.48 5.12-4.48 2.8-2.16.64-.96 4.8-6.56 5.04-5.84 6.32-6.48 7.52-6.32 6.4-4.32 4.56-2.4 4.72-2.08 4.96-1.6 2.56-.48zM896.16 736.56l-.48.88-4 6-4.24 5.36-5.68 6-7.04 5.92-6.16 4.08-4.56 2.32-4.8 2.08-5.2 1.6-2.72.56-.4.08-3.36.96-3.36 2-2.24 2.16-1.84 2.88-1.2 3.84-.24 2.4.24.64 1.04 4.88.64 4.72.24 5.36-.56 5.84-1.6 5.84-2.08 4.16-1.84 2.56-1.12 1.2-.32.32-1.92 2.64-1.52 2.8-1.44 3.76-1.04 4.72-.4 5.68.72 6.56.96 3.76-.56 1.36-.88 6.32.24 2.96.72 3.04 1.44 2.96 1.12 1.36.96.56 4.32 3.2 2.32 2.4.32.96 1.84-1.04 9.92-4.4 5.44-1.52 3.28-.32 1.36.16 2.24-4.8 12.8-29.28 10.32-24.48 4.88-12.32 1.2-1.92 5.84-12.8 2.64-8.56 1.28-6.24.32-3.2 2.96 6.72.4-.48 2.08-3.6 1.36-3.76.88-5.04v-6.24l-1.04-5.44-1.2-3.92-1.76-4.16-2.24-4.48-1.44-2.32-.64-.16-3.2.48-1.36 1.2-.56 1.36-.08.88" style="fill:none;stroke:#000;stroke-width:2px;stroke-linecap:butt;stroke-linejoin:miter;stroke-miterlimit:4;stroke-dasharray:none;stroke-opacity:1"/><path d="m360.4 748.16-8.24-.08-16-.8-15.36-1.68-14.56-2.48-13.92-3.28-13.2-4.16-12.48-4.96-11.76-5.84-5.6-3.2-5.52-3.36-10.4-7.28-9.68-7.92-8.96-8.56-8.24-9.2-7.6-9.92-6.88-10.48-6.16-11.2-2.8-5.84-2.72-6-4.8-12.48-4.08-12.96-3.44-13.44-2.72-14-2-14.4-1.44-15.04-.64-15.44-.08-8 .08-7.68.72-15.12 1.36-14.64 2.16-14.08 2.8-13.68 3.52-13.28 4.16-12.72 4.96-12.24 2.72-6 2.88-5.92 6.32-11.28 6.96-10.56 7.68-10 8.32-9.28 9.04-8.64 9.76-7.92 10.4-7.28 5.44-3.36 5.6-3.36 11.76-5.92 12.4-5.04 13.04-4.24 13.68-3.36L321.2 328l14.96-1.68 15.6-.88 8.08-.08 8.24.08 15.44.64 14.48 1.2 13.36 1.84 12.32 2.4 11.2 3.12 10.24 3.68 9.12 4.24 4.08 2.4 4.08 2.4 7.12 5.04 6.16 5.36 5.12 5.6 4.16 5.92 3.04 6.16 2.08 6.48 1.04 6.8.08 3.44-.08 2.72-.56 5.04-1.12 4.96-1.76 4.64-2.32 4.48-2.88 4.24-3.44 4-4 3.84-2.32 1.84-2.32 1.76-5.12 3.12-5.68 2.72-6.16 2.24-6.72 1.84-7.2 1.36-7.76.88-8.24.4-4.32.08-.08-4.72-.72-9.44-1.44-9.36-2.16-9.28-1.36-4.64-1.52-4.56-3.92-8.4-4.88-7.68-5.92-6.8-3.36-3.12-1.76-1.44-3.76-2.64-4.08-2.32-4.48-1.84-4.72-1.52-5.12-1.12-5.36-.8-5.76-.4h-2.96l-6.8.16-9.52.96-6.08 1.04-5.84 1.44-5.52 1.76-5.28 2.16-5.04 2.48-4.8 2.8-4.56 3.2-4.24 3.6-4.08 3.92-3.76 4.24-3.44 4.64-3.28 4.96-2.96 5.36-1.44 2.8-2.56 5.68-4.72 12.48-4 13.6-3.28 14.88-2.72 16.08-2 17.2-1.28 18.48-.64 19.68-.08 10.32.08 10.4.8 19.52 1.6 18.24 2.4 16.96 3.28 15.6 4.08 14.32 4.8 13.04 5.68 11.68 3.2 5.28 1.68 2.48 3.6 4.8 3.92 4.48 4.16 4.16 4.48 3.84 4.8 3.52 5.04 3.2 5.36 2.88 5.68 2.56 5.92 2.24 6.24 1.92 6.56 1.6 10.24 1.84L366.4 702l7.84.08 6.96-.08 13.12-1.04 12.08-2 11.12-3.04 5.12-1.92 4.96-2.16 9.28-4.88 8.48-5.28 7.76-5.84 3.52-3.12 3.52-3.2 6.64-6.32 6.08-6.32 5.44-6.32 2.48-3.2 1.2 1.04 2.16 2.32 1.84 2.48 1.52 2.88 1.76 4.72 1.2 7.28.16 4.08-.16 4-1.52 8.32-3.04 8.48-4.48 8.72-2.96 4.4-1.52 2.16-3.52 4.24-4.08 4-4.48 3.92-5.04 3.68-5.6 3.6-9.12 5.2-6.96 3.2-3.52 1.44-7.76 2.64-8.4 2.32-9.04 1.84-9.68 1.52-10.4 1.12-11.04.8-11.76.4h-6.16zM516.56 742.4v-30.56h6.88l3.84-.08 7.12-.96 6.48-2 5.84-3.04 2.64-1.92 1.36-1.12 2.72-2.56 3.92-4.8 5.04-8.48 4.8-10.72 2.32-6.32 124.96-338.72h78.96l120.4 339.28 2.16 5.92 4.56 10.16 4.72 8.16 3.68 4.8 2.56 2.64 1.28 1.12 2.8 2.08 5.84 3.28 6.16 2.16 6.56 1.04 3.44.08h10.32v30.56H757.84v-30.56h24.64l4.24-.64 4.16-1.36 4.16-1.92 2-1.2 1.92-1.36 3.04-3.52 2-4.32 1.04-5.12.08-2.96-.08-3.44-.88-6.64-.8-3.2-1.68-6.56-1.76-4.96-20.16-57.6h-140l-16.64 49.52-1.2 3.6-2.32 8.32-1.12 4.8-1.04 4.48-1.2 8.08-.08 3.6.08 2.64 1.04 4.8 2 4.24 3.04 3.52 1.92 1.44 2 1.44 4.32 2.16 4.4 1.44 4.72.72H666.32v30.56zm135.36-170.48h116.32l-30.56-94.48-6-20.32-7.2-23.44-3.36-11.92-5.76-22.16-2.4-10.32-5.6 19.36-7.12 22.72-7.36 22.56-7.04 20.64z" style="fill:#ffb612;fill-rule:nonzero;fill-opacity:1;stroke:#000;stroke-width:4px;stroke-linecap:butt;stroke-linejoin:miter;stroke-miterlimit:4;stroke-dasharray:none;stroke-opacity:1"/><path d="M292.24 310.64v448.88h36.72V310.64h-36.72zM385.2 309.6l1.44 450.32-35.44.64-1.44-450.4 35.44-.56z" style="fill:#ffb612;fill-rule:nonzero;fill-opacity:1;stroke:#000;stroke-width:4px;stroke-linecap:butt;stroke-linejoin:miter;stroke-miterlimit:4;stroke-dasharray:none;stroke-opacity:1"/></svg>