<?xml version="1.0" encoding="UTF-8" standalone="no"?>
<!-- Created with Inkscape (http://www.inkscape.org/) -->

<svg
   version="1.1"
   id="svg1"
   width="2904.9734"
   height="3920.6267"
   viewBox="0 0 2904.9734 3920.6267"
   sodipodi:docname="raised-first.svg"
   inkscape:version="1.3.2 (091e20ef0f, 2023-11-25, custom)"
   xmlns:inkscape="http://www.inkscape.org/namespaces/inkscape"
   xmlns:sodipodi="http://sodipodi.sourceforge.net/DTD/sodipodi-0.dtd"
   xmlns="http://www.w3.org/2000/svg"
   xmlns:svg="http://www.w3.org/2000/svg">
  <defs
     id="defs1" />
  <sodipodi:namedview
     id="namedview1"
     pagecolor="#ffffff"
     bordercolor="#000000"
     borderopacity="0.25"
     inkscape:showpageshadow="2"
     inkscape:pageopacity="0.0"
     inkscape:pagecheckerboard="0"
     inkscape:deskcolor="#d1d1d1"
     inkscape:zoom="0.19180607"
     inkscape:cx="1454.5942"
     inkscape:cy="1126.1375"
     inkscape:window-width="1920"
     inkscape:window-height="951"
     inkscape:window-x="0"
     inkscape:window-y="0"
     inkscape:window-maximized="1"
     inkscape:current-layer="g1">
    <inkscape:page
       x="0"
       y="0"
       inkscape:label="1"
       id="page1"
       width="2904.9734"
       height="3920.6267"
       margin="0"
       bleed="0" />
  </sodipodi:namedview>
  <g
     id="g1"
     inkscape:groupmode="layer"
     inkscape:label="1">
    <g
       id="group-R5">
      <path
         id="path2"
         d="m 17261.2,22388.2 c 639.7,570.8 741.5,734 673.3,901.4 -321.1,-301.2 -670.2,-628.6 -1046.8,-981.9 245,-61.4 490.4,-121.1 734.7,-184.5 267.9,-69.6 422.5,5 551.9,265 -289.7,0 -584.5,0 -913.1,0 z M 4352.31,21401.9 c -649.47,252.6 -1294.24,486.5 -1819.94,963.1 -21.01,-27.5 -42.03,-55.1 -63.04,-82.6 273.79,-264.1 547.58,-528.1 824.88,-795.5 -243.85,-77 -491.74,-155.2 -739.62,-233.4 8.2,-29.9 16.41,-59.8 24.61,-89.7 591.04,79.4 1182.07,158.8 1773.11,238.1 z m 4711.62,2794.4 c -28.77,-51.7 -62.2,-101.4 -85.6,-155.4 -446.35,-1030.7 -1105.46,-1853.2 -2192.18,-2266.8 -53.19,-20.3 -76.41,-119.3 -130.83,-210.5 1019.8,28.7 2317.98,1464.2 2408.61,2632.7 z m 7024.27,-3393.8 c -2.2,-19.6 -4.3,-39.3 -6.5,-58.9 81.7,-24.6 162.2,-55.5 245.5,-72.7 444.2,-91.6 892,-168.1 1332.4,-275.2 167.1,-40.7 276.6,-9 375.2,115.7 154.9,195.6 315.4,387.1 462.7,588.3 151.1,206.3 7.8,559.2 -233.8,625.5 -558.5,153.2 -1113.3,45.5 -1667.9,-15.4 -168.1,-18.5 -228.4,-146.8 -211,-309.4 648.9,-75.3 1286.7,-149.3 1924.4,-223.3 -0.8,-31.1 -1.5,-62.2 -2.2,-93.4 -748.9,-33.9 -1494.1,-91.8 -2218.8,-281.2 z m -8094.83,4745.9 c -4.29,46.3 -19.81,144 -21.02,241.8 -2.38,194.2 -95.12,249 -276.06,204.5 -608.87,-149.8 -1217.98,-298.8 -1828.63,-441.2 -217.06,-50.6 -317.88,-148.8 -227.88,-380.6 57.25,-147.4 92.95,-303.1 146,-452.3 57.81,-162.6 163.71,-240.9 349.01,-201.4 442.95,94.3 891.93,163.2 1330.91,272.6 462.07,115.3 529.43,226.5 527.67,756.6 z M 4823.98,21157.8 c -464.45,151.8 -2097.3,-369.5 -2316.78,-754 316.45,15.2 616.48,29.7 916.5,44.1 3.87,-17.2 7.74,-34.4 11.6,-51.6 -328.03,-279.9 -656.06,-559.8 -999.53,-852.8 969.44,-548.7 2435.25,106.6 2645.68,1200.9 -467.24,-202.7 -893.1,-387.5 -1318.95,-572.2 -16.07,23.9 -32.14,47.8 -48.2,71.6 368.26,303.3 736.52,606.7 1109.68,914 z m 3476.2,6888.5 c -235.27,-49.8 -452.15,-64.7 -643.36,-142.6 -419.45,-170.9 -501.3,-354.5 -366.28,-786.6 78.71,-251.9 202.11,-489.5 289.35,-739.1 56.44,-161.5 143.94,-185.9 293.04,-132.4 258.86,92.8 522.92,143.3 793.78,20.1 135.85,588.8 281.98,1167.8 400.33,1752.4 94.81,468.4 -282.48,833.5 -740.11,675 -553.86,-191.9 -1080.36,-463.6 -1615.48,-707.8 -71.4,-32.5 -123.95,-106.4 -185.23,-161.2 11.44,-24.2 22.88,-48.4 34.31,-72.7 535.07,354.9 1088.96,578.5 1739.65,294.9 z m 2899.22,-7196.6 c 0,585.7 -15.3,1191.1 3.1,1795.4 42.9,1413.9 211.5,2807.1 703.5,4147.6 130.8,356.5 279.9,684.8 609.5,904.9 -35.7,61.1 -59.1,118.6 -97.2,163.7 -279.9,331.2 -550.8,714.5 -1068.3,545.2 -544.1,-178 -1075.1,-396.2 -1610.4,-600.7 -41.36,-15.8 -71.05,-62.2 -92.63,-81.9 331.61,62.3 667.53,154.9 1008.53,181.4 364.7,28.5 787.3,-139.5 953.4,-319.7 -56.2,8.3 -100.2,15 -144.2,21.3 -683.2,97.8 -927.9,-22.4 -1241.1,-635 -265.36,-519 -520.54,-1043.3 -775.5,-1567.5 -47.09,-96.9 -71.61,-204.7 -115.5,-333.7 551.75,-35.5 1076.1,-12.6 1556.4,-258.8 -488.2,-172.7 -994.34,15.1 -1486.34,-71 496.08,-282.5 1035.04,-302.2 1591.64,-271.8 -50.6,-1119.8 -100.4,-2221 -150.8,-3333.7 -109.9,0 -193.1,-11.2 -272.3,1.8 -608.6,99.8 -1227.18,168.4 -1766.82,560.6 83.44,-487.8 1660.12,-1050.6 2395.02,-848.1 z m 6207.6,2299.2 c 230.9,109 386.1,243.2 436.8,457.5 192.1,812.9 -36.9,1544.5 -480.2,2217 -86.9,131.7 -265.4,261.4 -416.5,281.7 -529.9,71.3 -1042.8,-59.5 -1547.5,-209.5 1083.2,-145.7 1215.1,-188.6 1406.4,-473.8 -127.5,32.1 -253.5,56.2 -374.6,95.5 -432,140.2 -778.9,29 -1074.4,-316.6 -290,-339.3 -603.6,-658.5 -905.4,-987.9 -38.6,-42.1 -67.8,-92.8 -120,-165.3 553.8,-55.7 1075.2,-126.4 1492.9,-512.2 -449.3,45.2 -898.6,90.5 -1347.8,135.7 451,-318 949.7,-460 1521.3,-395.1 -121.1,-696.6 -230.7,-1352.6 -355.9,-2005.5 -12.4,-65.1 -111.8,-142.5 -184.8,-162.1 -387.2,-103.7 -779.2,-189.4 -1168.6,-285 -77.7,-19.1 -151.6,-54.2 -227.2,-82 5.6,-21.4 11.3,-42.8 16.9,-64.2 433.2,-76.1 863.2,-67.1 1288,76.9 421.7,143 708.8,405.2 821.3,855.6 124.4,497.8 276.6,988.7 417.4,1482.5 3.7,13 14.3,24 23.8,39.2 58,-23.7 116.2,-47.5 216.7,-88.6 69.2,286.5 133.2,551.3 197.2,816.2 11.9,-1.1 23.7,-2.1 35.6,-3.2 -11.6,-222 -23.3,-444 -34.9,-666 21.8,-8.3 43.6,-16.6 65.4,-24.9 153.7,183.9 307.4,367.8 501.7,600.3 -74.6,-225.9 -130.7,-395.5 -203.6,-616.2 z m -6086,-1918.1 c -15.4,-16.7 -30.8,-33.4 -46.3,-50.2 91.7,-81.9 177.5,-171.8 275.9,-244.5 471.5,-348 1016,-495.8 1587.3,-565.1 460.5,-55.9 579.3,52.1 600.6,521.9 31.2,688.9 50,1379.1 109.5,2065.6 42.2,488 82.1,990.4 230.6,1451.8 266.4,827.5 582.4,1645 1187.2,2306.5 34.6,37.9 53.4,126.3 34,171.9 -158.7,372.9 -595.8,606 -986.3,498.6 -518,-142.5 -1027.5,-316 -1540.2,-477.5 -12.6,-4 -20.4,-23.5 -51.4,-61.2 604.3,91.9 1170.1,101.9 1698,-186.9 -38.2,-13.3 -74.5,-10.6 -110.4,-5.2 -813.1,122.6 -1206.8,-70.6 -1623,-767.3 -291.2,-487.4 -603.1,-962.3 -903.6,-1444.1 -60.9,-97.7 -112.5,-201.2 -185,-331.7 682.9,21.5 1320.2,28.1 1895.4,-352.3 -519.2,0 -1038.5,0 -1557.7,0 484.7,-280.3 1010.5,-330.7 1574.2,-312.6 -35.9,-964.6 -71,-1905.8 -108.5,-2910.6 -395.3,88 -756,138.4 -1095.4,252.3 -339.3,113.8 -657.4,291.1 -984.9,440.6 z m -6547.55,2063.8 c 252.38,-97.8 440.24,-216.2 639.16,-239.3 656.98,-76.1 1297.85,1.7 1907.02,285.3 1001.79,466.5 1471.33,1265.8 1319.33,2291.8 -22.38,151 -96.3,300.8 -175.58,433.7 -29.65,49.7 -142.72,49.6 -217.75,72.2 -17.24,-65.1 -46.79,-129.8 -49.55,-195.5 -10.74,-255.8 -0.61,-512.9 -21.92,-767.5 -20.6,-246.3 -163.79,-423.9 -392.95,-514.7 -559.04,-221.4 -1132.21,-390 -1741.08,-379.8 -427.87,7.2 -597.32,138.7 -712.14,558.7 -52.89,193.4 -68.86,397 -105.51,619.9 -709.91,-93.3 -1414.41,-178.6 -2116.47,-280.8 -484.61,-70.5 -664.53,-280.3 -582.26,-762.3 221.46,-1297.5 895.84,-2262.1 2146.08,-2770.3 66.16,-26.9 141.96,-30.1 213.27,-44.3 9.61,24.4 19.22,48.8 28.82,73.1 -571.9,236.5 -1056.11,586.8 -1451.31,1056.2 -362.13,430.1 -681,1306.3 -595.79,1710.5 282.81,-559.1 760.36,-895.6 1207.6,-1267.8 440.87,-366.9 854.43,-766.7 1316.52,-1185.1 -217.85,462.3 -411.49,873.1 -615.49,1306 z m 7590.75,-4700.9 c -25.7,-7.9 -51.4,-15.8 -77.2,-23.8 0,-21.5 -6.3,-45.6 1,-64.4 330.3,-857.3 426,-1761.9 544.5,-2662.9 88.4,-673.1 256.2,-1324.6 638.4,-1899.5 327.1,-491.9 731.8,-601.5 1246.8,-302.4 271.6,157.7 523.2,362.4 751.8,579.7 802.1,762.2 1365.2,1682.6 1664.9,2744.7 230,814.7 401,1646.2 589.5,2472.3 31.7,138.9 75,287.2 -98.3,402.2 -834,553.2 -1677.9,635.3 -2557.4,105.8 -1018.7,-613.3 -1859.1,-1376.2 -2204,-2521.2 -158.6,371 -329.3,770.2 -500,1169.5 z m -1172.1,-5628.4 c -349.6,-488 -315.1,-988.8 -304.8,-1478.5 64.6,-3060.7 136.8,-6121.3 206.6,-9181.9 15.8,-697 32.4,-1393.9 48.2,-2090.9 1.5,-66.301 0.2,-132.6992 0.2,-214 -2241.84,0 -4464.97,0 -6707.1,0 77.73,534.5 158.34,1056.4 228.88,1579.7 254,1884.4 513.21,3768 754.01,5654.1 228.33,1788.4 434.8,3579.6 655.39,5369 15.62,126.8 -0.48,210.5 -116.48,284.9 -834.82,535.5 -1540.51,1210.5 -2058.65,2055.6 -792.93,1293.2 -1792.25,2421.5 -2769.35,3569.4 -171.863,201.9 -341.152,406.1 -505.961,613.8 -174.969,220.4 -230.941,464.4 -163.867,746.3 375.23,1576.6 735.828,3156.8 1117.578,4731.9 175.95,726 485.16,936.4 1230.87,941.4 583.15,4 1166.08,34.5 1749.25,44.4 157.14,2.7 226.7,53.6 245.31,217.5 58.94,519.3 154.23,1035.2 196.08,1555.6 48.24,599.8 329.9,975.8 905.86,1166.7 682.79,226.3 1352.72,491.2 2030.83,732 163.27,58 335.21,95.6 505.98,127.4 251,46.8 484.89,-11.7 617.55,-237.8 276.62,-471.6 652.11,-509.1 1126.02,-339.5 384,137.3 783.8,234.8 1181.8,328 497.2,116.5 632.2,51.4 915.3,-367.6 186.6,-276.2 385.8,-544 564.9,-824.8 113.3,-177.8 252.2,-209.8 444,-159.3 417.4,109.9 835.6,219 1257.7,308.4 371.5,78.7 517.7,4.5 716.9,-321.9 161.7,-265 315.7,-534.7 473.8,-802 88.5,-149.7 208.4,-224.1 393.9,-203.5 217.9,24.2 438.8,20.9 658,34.6 482.5,30 836.7,-173.7 1001,-622.6 215.6,-589.3 395.5,-1192 582.4,-1791.4 322.3,-1033.8 643.4,-2068.1 950.6,-3106.4 41.2,-139.2 -1.5,-303.2 -5.9,-455.7 -0.2,-6.9 -5.5,-14.1 -9.5,-20.5 C 18618,19720.4 18342,18505 18166,17247.6 c -187.5,-1339.5 -732.6,-2536.1 -1550.3,-3617 -219.1,-289.7 -358,-641.9 -519,-972.6 -40.1,-82.4 -36.4,-193.5 -30.2,-290 113,-1784.1 221.7,-3568.5 347.7,-5351.7 97.1,-1375.5 216,-2749.4 326.9,-4123.9 68.9,-853.3 141.3,-1706.4 211.2,-2559.701 8.5,-103.898 11.5,-208.199 18,-328.699 -371.5,0 -723.5,0 -1116.4,0 -193.4,4240.5 -661.5,8457.5 -738.2,12671.7 -100.5,-56.1 -267.6,-129.9 -409.3,-237.3 -62.3,-47.2 -100.5,-162.2 -102.1,-247.3 -9.3,-499.6 -4.6,-999.5 -4.6,-1528 -61.2,286.9 -117.7,553.6 -175.1,820.1 -51,237 -87.6,478.6 -161.6,708.2 -32.1,99.6 -136,180.8 -219.4,257 -41.7,38 -109.1,52.5 -167.6,66.6 -731.8,176 -1267.3,621.7 -1694.3,1221.3 -117.4,165 -222.4,329.6 -162.6,543.5 486.7,1742.7 -84.1,3222.4 -1153.9,4567.3 -755.1,949.3 -1632.81,1750.2 -2805.22,2165.2 -560.2,198.3 -1138.32,250.8 -1724.8,204.8 -115.72,-9.1 -255.19,-76.6 -331.77,-163.1 -416.27,-470.4 -837.99,-939.2 -1210.61,-1443.4 -139.01,-188.1 -150.27,-470.6 -219.79,-710.1 33.37,-22.4 66.75,-44.9 100.11,-67.4 274.6,199 549.19,398 873.11,632.7 -47.66,-157.8 -87.49,-265.8 -112.58,-377.1 -86.12,-382.2 -203.12,-761.9 -241.94,-1149.2 -65.96,-657.9 214.96,-1215.6 630.59,-1701 817.44,-954.8 1848.04,-1499.4 3115.98,-1564 34.57,-1.8 68.97,-6.9 162.27,-16.4 -793.3,-432.3 -1568.52,-752.6 -2423.46,-946.4 386.26,-122.2 1627.76,212.4 2454.29,635.9 766.88,393 1475.02,861.9 2033.62,1534.5 -401.3,-795.1 -925.5,-1480 -1699.45,-1955.8 777.95,130.4 1502.05,410.3 2263.55,753.3 -614.4,-1204.9 -1577.3,-1956.3 -2676,-2579.8 78.53,0 157.06,0 257.78,0 -50.75,-2721.5 -101.25,-5429.1 -151.75,-8136.8 17.55,-0.3 35.1,-0.6 52.65,-0.8 54.36,1286.5 112.68,2572.9 162.03,3859.7 54.58,1423.5 99.73,2847.4 154.5,4270.9 2.73,71.1 39,177.9 91.63,204.3 439.66,220.2 886.16,426.8 1332.66,633 50,23.1 113.1,17.8 239.5,35.2"
         style="fill:#231f20;fill-opacity:1;fill-rule:nonzero;stroke:none"
         transform="matrix(0.13333333,0,0,-0.13333333,0,3920.6267)" />
      <path
         id="path3"
         d="m 13141,3073.3 c -444.5,3521.8 -1119.6,7018.1 -1127.8,10523.5 232.2,-301.2 504.8,-649.6 769.2,-1004.1 35.5,-47.6 41,-126.3 40.8,-190.5 -3.6,-984.2 -49.3,-1970 -8.3,-2952.2 84.3,-2013.7 215,-4025.4 325.3,-6038 6.2,-112.6 0.8,-225.8 0.8,-338.7"
         style="fill:#231f20;fill-opacity:1;fill-rule:nonzero;stroke:none"
         transform="matrix(0.13333333,0,0,-0.13333333,0,3920.6267)" />
      <path
         id="path4"
         d="m 16869,7366.5 c 106.5,-187.3 217.4,-381.7 327.7,-576.5 409.9,-723.8 819.8,-1447.5 1228.7,-2171.8 37.1,-65.6 99.7,-138.8 92.5,-201.9 -8.9,-78.6 -63.1,-171.7 -127.2,-216.6 -36.4,-25.6 -170,11.4 -194.5,56.1 -504.5,921.5 -998.7,1848.6 -1497.5,2773.2 -92.8,172.1 -60.6,282 170.3,337.5"
         style="fill:#231f20;fill-opacity:1;fill-rule:nonzero;stroke:none"
         transform="matrix(0.13333333,0,0,-0.13333333,0,3920.6267)" />
      <path
         id="path5"
         d="M 4982.52,7246.7 C 4943.36,7113 4928.48,6965.4 4861.16,6847.8 4376.46,6001.1 3881.17,5160.4 3388.9,4318 c -11.38,-19.5 -26.78,-36.6 -40.35,-54.8 -70.41,-94.5 -143.16,-145.9 -266.42,-67.5 -120.39,76.6 -88.99,161.1 -37.41,250.7 237.76,412.9 465.84,832.2 720.58,1234.5 307.53,485.7 636.87,957.6 960.97,1432.6 46.31,67.9 116.22,119.7 175.21,178.9 27.02,-15.2 54.03,-30.4 81.04,-45.7"
         style="fill:#231f20;fill-opacity:1;fill-rule:nonzero;stroke:none"
         transform="matrix(0.13333333,0,0,-0.13333333,0,3920.6267)" />
      <path
         id="path6"
         d="m 3106.89,7256.7 c 763.04,1164.3 1516.91,2314.6 2270.79,3464.8 21.85,-12 43.7,-24.1 65.55,-36.1 -32.7,-80.5 -54.87,-167.5 -99.7,-240.6 C 4730.75,9445.4 4115.1,8447.7 3499.37,7450.1 3417.41,7317.3 3319.64,7208.5 3106.89,7256.7"
         style="fill:#231f20;fill-opacity:1;fill-rule:nonzero;stroke:none"
         transform="matrix(0.13333333,0,0,-0.13333333,0,3920.6267)" />
      <path
         id="path7"
         d="m 17763.1,6502.1 c -356.8,347.5 -1149.2,1696.6 -1191.8,2394.4 263,-388.5 533.8,-771.9 786.4,-1167 187.3,-293.1 362.8,-595.5 517,-906.9 41,-82.7 -15.6,-213.8 -27.5,-322.7 -28,0.8 -56.1,1.5 -84.1,2.2"
         style="fill:#231f20;fill-opacity:1;fill-rule:nonzero;stroke:none"
         transform="matrix(0.13333333,0,0,-0.13333333,0,3920.6267)" />
      <path
         id="path8"
         d="m 18681.9,7201.1 c -66.9,23.6 -167.3,26.8 -195.8,73.7 -585.2,963 -1162.3,1930.8 -1739.9,2898.4 -22.1,37.1 -32,81.5 -23.1,136.6 787.3,-935.8 1323.5,-2033.7 2001.1,-3039.3 -14.1,-23.1 -28.2,-46.2 -42.3,-69.4"
         style="fill:#231f20;fill-opacity:1;fill-rule:nonzero;stroke:none"
         transform="matrix(0.13333333,0,0,-0.13333333,0,3920.6267)" />
      <path
         id="path9"
         d="m 5213.89,8518.9 c -70.83,-188.2 -115.32,-392.2 -217.48,-561.5 -292.26,-484.2 -607.93,-954.3 -914.48,-1429.9 -4.07,-6.4 -8.08,-14.3 -14.2,-17.5 -67.64,-34.7 -135.69,-68.5 -203.63,-102.6 4.87,73 -13.8,159.4 18.71,216.8 137.47,242.9 283.26,481.8 438.8,713.5 272.6,406.2 554.58,806.1 832.63,1208.5 19.88,-9.1 39.77,-18.2 59.65,-27.3"
         style="fill:#231f20;fill-opacity:1;fill-rule:nonzero;stroke:none"
         transform="matrix(0.13333333,0,0,-0.13333333,0,3920.6267)" />
      <path
         id="path10"
         d="m 5104.01,8907 c -246.93,-385.8 -492.73,-772.4 -741.21,-1157.2 -151.27,-234.3 -302.54,-468.9 -464.09,-696 -28.14,-39.6 -107.39,-42.8 -163.04,-62.9 -16.51,60.4 -67.43,145.7 -44.44,177.4 437.36,603 883.42,1199.8 1327.68,1797.8 28.37,-19.7 56.74,-39.4 85.1,-59.1"
         style="fill:#231f20;fill-opacity:1;fill-rule:nonzero;stroke:none"
         transform="matrix(0.13333333,0,0,-0.13333333,0,3920.6267)" />
      <path
         id="path11"
         d="m 27.6719,14078.7 c 589.7031,-141.1 1179.4081,-282.1 1769.1081,-423.2 -4.03,-17.6 -8.07,-35.2 -12.1,-52.8 -594.89,125.7 -1189.785,251.3 -1784.68,377 9.22266,33 18.4492,66 27.6719,99"
         style="fill:#231f20;fill-opacity:1;fill-rule:nonzero;stroke:none"
         transform="matrix(0.13333333,0,0,-0.13333333,0,3920.6267)" />
      <path
         id="path12"
         d="m 18238.6,10860.5 c -156.1,136.6 -312.1,273.2 -480.9,421 219.6,152.1 363.7,25.6 485.7,-80 63.9,-55.2 68.8,-178.5 100.4,-271.1 -35.1,-23.3 -70.2,-46.6 -105.2,-69.9"
         style="fill:#231f20;fill-opacity:1;fill-rule:nonzero;stroke:none"
         transform="matrix(0.13333333,0,0,-0.13333333,0,3920.6267)" />
      <path
         id="path13"
         d="m 21787.3,13964.5 c -544.9,-99.3 -1089.8,-198.6 -1634.7,-297.9 -3.3,16.6 -6.7,33.3 -10,50 541.8,109.6 1083.7,219.2 1625.5,328.7 6.4,-26.9 12.8,-53.9 19.2,-80.8"
         style="fill:#231f20;fill-opacity:1;fill-rule:nonzero;stroke:none"
         transform="matrix(0.13333333,0,0,-0.13333333,0,3920.6267)" />
      <path
         id="path14"
         d="m 3493.53,12814.6 c -635.42,-23 -1287.36,-46.5 -1939.3,-70.1 -0.5,23.4 -1,46.7 -1.5,70.1 650.08,0 1300.16,0 1940.8,0"
         style="fill:#231f20;fill-opacity:1;fill-rule:nonzero;stroke:none"
         transform="matrix(0.13333333,0,0,-0.13333333,0,3920.6267)" />
      <path
         id="path15"
         d="m 18334.4,12813.4 c 338.5,0 948,0 1557.4,0 -0.5,-24.7 -1.1,-49.5 -1.7,-74.2 -609.1,29.1 -1218.1,58.1 -1555.7,74.2"
         style="fill:#231f20;fill-opacity:1;fill-rule:nonzero;stroke:none"
         transform="matrix(0.13333333,0,0,-0.13333333,0,3920.6267)" />
      <path
         id="path16"
         d="m 3637.25,10423.7 c 249.28,309.3 498.56,618.6 747.84,927.9 30.06,-24.6 60.13,-49.1 90.2,-73.6 -261.79,-299.9 -523.58,-599.8 -785.37,-899.6 -17.55,15.1 -35.11,30.2 -52.67,45.3"
         style="fill:#231f20;fill-opacity:1;fill-rule:nonzero;stroke:none"
         transform="matrix(0.13333333,0,0,-0.13333333,0,3920.6267)" />
      <path
         id="path17"
         d="m 18503.4,9587.2 c -84.3,140.8 -168,218.4 -160.6,286 7.1,65.9 107.2,168.9 166.9,169.2 64.9,0.3 184.9,-101.2 182.7,-154.2 -3.3,-79.9 -91.8,-156.3 -189,-301"
         style="fill:#231f20;fill-opacity:1;fill-rule:nonzero;stroke:none"
         transform="matrix(0.13333333,0,0,-0.13333333,0,3920.6267)" />
      <path
         id="path18"
         d="m 3500.57,10782.9 c -89.31,79.2 -135.48,120.2 -181.64,161.2 101.59,90.1 201.56,182.2 308.44,265.5 7.03,5.5 101.43,-76.7 96.92,-84.5 -62.58,-108.6 -135.36,-211.3 -223.72,-342.2"
         style="fill:#231f20;fill-opacity:1;fill-rule:nonzero;stroke:none"
         transform="matrix(0.13333333,0,0,-0.13333333,0,3920.6267)" />
      <path
         id="path19"
         d="m 3465.35,9914.1 c -95.99,-92.5 -149.39,-143.9 -202.78,-195.4 -63.5,71.4 -145.52,135.1 -179.47,218.5 -10.51,25.8 103.98,136.1 172.1,148.6 46.07,8.5 111.11,-86.4 210.15,-171.7"
         style="fill:#231f20;fill-opacity:1;fill-rule:nonzero;stroke:none"
         transform="matrix(0.13333333,0,0,-0.13333333,0,3920.6267)" />
      <path
         id="path20"
         d="m 4267.91,3702.3 c -62.1,109.6 -124.38,172.3 -123.91,234.5 0.34,45 84.07,89.3 130.61,133.9 50.43,-55.4 125.92,-104.4 141.99,-168.4 9.83,-39.2 -71.56,-101.2 -148.69,-200"
         style="fill:#231f20;fill-opacity:1;fill-rule:nonzero;stroke:none"
         transform="matrix(0.13333333,0,0,-0.13333333,0,3920.6267)" />
      <path
         id="path21"
         d="m 17400.1,3937.4 c -107.2,-77.7 -162.5,-141 -228.4,-155.3 -31.7,-6.9 -122.8,84.9 -117.1,121 9,57.2 69.4,135.5 121.7,147.9 47.3,11.4 112.8,-53.4 223.8,-113.6"
         style="fill:#231f20;fill-opacity:1;fill-rule:nonzero;stroke:none"
         transform="matrix(0.13333333,0,0,-0.13333333,0,3920.6267)" />
      <path
         id="path22"
         d="m 20099.5,18859.6 c 115.1,158.3 230.3,316.7 345.4,475 27.4,-21 54.8,-41.9 82.2,-62.9 -124.1,-153 -248.1,-305.9 -372.2,-458.9 -18.5,15.6 -36.9,31.2 -55.4,46.8"
         style="fill:#231f20;fill-opacity:1;fill-rule:nonzero;stroke:none"
         transform="matrix(0.13333333,0,0,-0.13333333,0,3920.6267)" />
      <path
         id="path23"
         d="m 17091.5,19588.7 c -16.2,18.3 -32.3,36.6 -48.5,54.9 -242.7,-210.5 -485.4,-421 -728.1,-631.5 15,-17.3 29.9,-34.6 44.9,-51.8 243.9,209.4 487.8,418.9 731.7,628.4 z m -1550,-4460.2 c 21.6,-12.8 43.2,-25.6 64.8,-38.5 205.6,395.4 411.2,790.7 616.8,1186.1 -20.8,10.9 -41.7,21.8 -62.5,32.6 -206.4,-393.4 -412.8,-786.8 -619.1,-1180.2 z m -3177.3,3465.2 c 170.7,-399.3 341.4,-798.5 500,-1169.5 344.9,1145 1185.3,1907.9 2204,2521.2 879.5,529.5 1723.4,447.4 2557.4,-105.8 173.3,-115 130,-263.3 98.3,-402.2 -188.5,-826.1 -359.5,-1657.6 -589.5,-2472.3 -299.7,-1062.1 -862.8,-1982.5 -1664.9,-2744.7 -228.6,-217.3 -480.2,-422 -751.8,-579.7 -515,-299.1 -919.7,-189.5 -1246.8,302.4 -382.2,574.9 -550,1226.4 -638.4,1899.5 -118.5,901 -214.2,1805.6 -544.5,2662.9 -7.3,18.8 -1,42.9 -1,64.4 25.8,8 51.5,15.9 77.2,23.8"
         style="fill:#ffffff;fill-opacity:1;fill-rule:nonzero;stroke:none"
         transform="matrix(0.13333333,0,0,-0.13333333,0,3920.6267)" />
      <path
         id="path24"
         d="m 4773.45,23294.6 c 204,-432.9 397.64,-843.7 615.49,-1306 -462.09,418.4 -875.65,818.2 -1316.52,1185.1 -447.24,372.2 -924.79,708.7 -1207.6,1267.8 -85.21,-404.2 233.66,-1280.4 595.79,-1710.5 395.2,-469.4 879.41,-819.7 1451.31,-1056.2 -9.6,-24.3 -19.21,-48.7 -28.82,-73.1 -71.31,14.2 -147.11,17.4 -213.27,44.3 -1250.24,508.2 -1924.62,1472.8 -2146.08,2770.3 -82.27,482 97.65,691.8 582.26,762.3 702.06,102.2 1406.56,187.5 2116.47,280.8 36.65,-222.9 52.62,-426.5 105.51,-619.9 114.82,-420 284.27,-551.5 712.14,-558.7 608.87,-10.2 1182.04,158.4 1741.08,379.8 229.16,90.8 372.35,268.4 392.95,514.7 21.31,254.6 11.18,511.7 21.92,767.5 2.76,65.7 32.31,130.4 49.55,195.5 75.03,-22.6 188.1,-22.5 217.75,-72.2 79.28,-132.9 153.2,-282.7 175.58,-433.7 152,-1026 -317.54,-1825.3 -1319.33,-2291.8 -609.17,-283.6 -1250.04,-361.4 -1907.02,-285.3 -198.92,23.1 -386.78,141.5 -639.16,239.3"
         style="fill:#ffffff;fill-opacity:1;fill-rule:nonzero;stroke:none"
         transform="matrix(0.13333333,0,0,-0.13333333,0,3920.6267)" />
      <path
         id="path25"
         d="m 11321,21230.8 c 327.5,-149.5 645.6,-326.8 984.9,-440.6 339.4,-113.9 700.1,-164.3 1095.4,-252.3 37.5,1004.8 72.6,1946 108.5,2910.6 -563.7,-18.1 -1089.5,32.3 -1574.2,312.6 519.2,0 1038.5,0 1557.7,0 -575.2,380.4 -1212.5,373.8 -1895.4,352.3 72.5,130.5 124.1,234 185,331.7 300.5,481.8 612.4,956.7 903.6,1444.1 416.2,696.7 809.9,889.9 1623,767.3 35.9,-5.4 72.2,-8.1 110.4,5.2 -527.9,288.8 -1093.7,278.8 -1698,186.9 31,37.7 38.8,57.2 51.4,61.2 512.7,161.5 1022.2,335 1540.2,477.5 390.5,107.4 827.6,-125.7 986.3,-498.6 19.4,-45.6 0.6,-134 -34,-171.9 -604.8,-661.5 -920.8,-1479 -1187.2,-2306.5 -148.5,-461.4 -188.4,-963.8 -230.6,-1451.8 -59.5,-686.5 -78.3,-1376.7 -109.5,-2065.6 -21.3,-469.8 -140.1,-577.8 -600.6,-521.9 -571.3,69.3 -1115.8,217.1 -1587.3,565.1 -98.4,72.7 -184.2,162.6 -275.9,244.5 15.5,16.8 30.9,33.5 46.3,50.2"
         style="fill:#ffffff;fill-opacity:1;fill-rule:nonzero;stroke:none"
         transform="matrix(0.13333333,0,0,-0.13333333,0,3920.6267)" />
      <path
         id="path26"
         d="m 17407,23148.9 c 72.9,220.7 129,390.3 203.6,616.2 -194.3,-232.5 -348,-416.4 -501.7,-600.3 -21.8,8.3 -43.6,16.6 -65.4,24.9 11.6,222 23.3,444 34.9,666 -11.9,1.1 -23.7,2.1 -35.6,3.2 -64,-264.9 -128,-529.7 -197.2,-816.2 -100.5,41.1 -158.7,64.9 -216.7,88.6 -9.5,-15.2 -20.1,-26.2 -23.8,-39.2 -140.8,-493.8 -293,-984.7 -417.4,-1482.5 -112.5,-450.4 -399.6,-712.6 -821.3,-855.6 -424.8,-144 -854.8,-153 -1288,-76.9 -5.6,21.4 -11.3,42.8 -16.9,64.2 75.6,27.8 149.5,62.9 227.2,82 389.4,95.6 781.4,181.3 1168.6,285 73,19.6 172.4,97 184.8,162.1 125.2,652.9 234.8,1308.9 355.9,2005.5 -571.6,-64.9 -1070.3,77.1 -1521.3,395.1 449.2,-45.2 898.5,-90.5 1347.8,-135.7 -417.7,385.8 -939.1,456.5 -1492.9,512.2 52.2,72.5 81.4,123.2 120,165.3 301.8,329.4 615.4,648.6 905.4,987.9 295.5,345.6 642.4,456.8 1074.4,316.6 121.1,-39.3 247.1,-63.4 374.6,-95.5 -191.3,285.2 -323.2,328.1 -1406.4,473.8 504.7,150 1017.6,280.8 1547.5,209.5 151.1,-20.3 329.6,-150 416.5,-281.7 443.3,-672.5 672.3,-1404.1 480.2,-2217 -50.7,-214.3 -205.9,-348.5 -436.8,-457.5"
         style="fill:#ffffff;fill-opacity:1;fill-rule:nonzero;stroke:none"
         transform="matrix(0.13333333,0,0,-0.13333333,0,3920.6267)" />
      <path
         id="path27"
         d="m 11199.4,20849.7 c -734.9,-202.5 -2311.58,360.3 -2395.02,848.1 539.64,-392.2 1158.22,-460.8 1766.82,-560.6 79.2,-13 162.4,-1.8 272.3,-1.8 50.4,1112.7 100.2,2213.9 150.8,3333.7 -556.6,-30.4 -1095.56,-10.7 -1591.64,271.8 492,86.1 998.14,-101.7 1486.34,71 -480.3,246.2 -1004.65,223.3 -1556.4,258.8 43.89,129 68.41,236.8 115.5,333.7 254.96,524.2 510.14,1048.5 775.5,1567.5 313.2,612.6 557.9,732.8 1241.1,635 44,-6.3 88,-13 144.2,-21.3 -166.1,180.2 -588.7,348.2 -953.4,319.7 -341,-26.5 -676.92,-119.1 -1008.53,-181.4 21.58,19.7 51.27,66.1 92.63,81.9 535.3,204.5 1066.3,422.7 1610.4,600.7 517.5,169.3 788.4,-214 1068.3,-545.2 38.1,-45.1 61.5,-102.6 97.2,-163.7 -329.6,-220.1 -478.7,-548.4 -609.5,-904.9 -492,-1340.5 -660.6,-2733.7 -703.5,-4147.6 -18.4,-604.3 -3.1,-1209.7 -3.1,-1795.4"
         style="fill:#ffffff;fill-opacity:1;fill-rule:nonzero;stroke:none"
         transform="matrix(0.13333333,0,0,-0.13333333,0,3920.6267)" />
      <path
         id="path28"
         d="m 8300.18,28046.3 c -650.69,283.6 -1204.58,60 -1739.65,-294.9 -11.43,24.3 -22.87,48.5 -34.31,72.7 61.28,54.8 113.83,128.7 185.23,161.2 535.12,244.2 1061.62,515.9 1615.48,707.8 457.63,158.5 834.92,-206.6 740.11,-675 -118.35,-584.6 -264.48,-1163.6 -400.33,-1752.4 -270.86,123.2 -534.92,72.7 -793.78,-20.1 -149.1,-53.5 -236.6,-29.1 -293.04,132.4 -87.24,249.6 -210.64,487.2 -289.35,739.1 -135.02,432.1 -53.17,615.7 366.28,786.6 191.21,77.9 408.09,92.8 643.36,142.6"
         style="fill:#ffffff;fill-opacity:1;fill-rule:nonzero;stroke:none"
         transform="matrix(0.13333333,0,0,-0.13333333,0,3920.6267)" />
      <path
         id="path29"
         d="m 4823.98,21157.8 c -373.16,-307.3 -741.42,-610.7 -1109.68,-914 16.06,-23.8 32.13,-47.7 48.2,-71.6 425.85,184.7 851.71,369.5 1318.95,572.2 -210.43,-1094.3 -1676.24,-1749.6 -2645.68,-1200.9 343.47,293 671.5,572.9 999.53,852.8 -3.86,17.2 -7.73,34.4 -11.6,51.6 -300.02,-14.4 -600.05,-28.9 -916.5,-44.1 219.48,384.5 1852.33,905.8 2316.78,754"
         style="fill:#ffffff;fill-opacity:1;fill-rule:nonzero;stroke:none"
         transform="matrix(0.13333333,0,0,-0.13333333,0,3920.6267)" />
      <path
         id="path30"
         d="m 7993.37,25548.4 c 1.76,-530.1 -65.6,-641.3 -527.67,-756.6 -438.98,-109.4 -887.96,-178.3 -1330.91,-272.6 -185.3,-39.5 -291.2,38.8 -349.01,201.4 -53.05,149.2 -88.75,304.9 -146,452.3 -90,231.8 10.82,330 227.88,380.6 610.65,142.4 1219.76,291.4 1828.63,441.2 180.94,44.5 273.68,-10.3 276.06,-204.5 1.21,-97.8 16.73,-195.5 21.02,-241.8"
         style="fill:#ffffff;fill-opacity:1;fill-rule:nonzero;stroke:none"
         transform="matrix(0.13333333,0,0,-0.13333333,0,3920.6267)" />
      <path
         id="path31"
         d="m 16088.2,20802.5 c 724.7,189.4 1469.9,247.3 2218.8,281.2 0.7,31.2 1.4,62.3 2.2,93.4 -637.7,74 -1275.5,148 -1924.4,223.3 -17.4,162.6 42.9,290.9 211,309.4 554.6,60.9 1109.4,168.6 1667.9,15.4 241.6,-66.3 384.9,-419.2 233.8,-625.5 -147.3,-201.2 -307.8,-392.7 -462.7,-588.3 -98.6,-124.7 -208.1,-156.4 -375.2,-115.7 -440.4,107.1 -888.2,183.6 -1332.4,275.2 -83.3,17.2 -163.8,48.1 -245.5,72.7 2.2,19.6 4.3,39.3 6.5,58.9"
         style="fill:#ffffff;fill-opacity:1;fill-rule:nonzero;stroke:none"
         transform="matrix(0.13333333,0,0,-0.13333333,0,3920.6267)" />
      <path
         id="path32"
         d="m 9063.93,24196.3 c -90.63,-1168.5 -1388.81,-2604 -2408.61,-2632.7 54.42,91.2 77.64,190.2 130.83,210.5 1086.72,413.6 1745.83,1236.1 2192.18,2266.8 23.4,54 56.83,103.7 85.6,155.4"
         style="fill:#ffffff;fill-opacity:1;fill-rule:nonzero;stroke:none"
         transform="matrix(0.13333333,0,0,-0.13333333,0,3920.6267)" />
      <path
         id="path33"
         d="m 4352.31,21401.9 c -591.04,-79.3 -1182.07,-158.7 -1773.11,-238.1 -8.2,29.9 -16.41,59.8 -24.61,89.7 247.88,78.2 495.77,156.4 739.62,233.4 -277.3,267.4 -551.09,531.4 -824.88,795.5 21.01,27.5 42.03,55.1 63.04,82.6 525.7,-476.6 1170.47,-710.5 1819.94,-963.1"
         style="fill:#ffffff;fill-opacity:1;fill-rule:nonzero;stroke:none"
         transform="matrix(0.13333333,0,0,-0.13333333,0,3920.6267)" />
      <path
         id="path34"
         d="m 17261.2,22388.2 c 328.6,0 623.4,0 913.1,0 -129.4,-260 -284,-334.6 -551.9,-265 -244.3,63.4 -489.7,123.1 -734.7,184.5 376.6,353.3 725.7,680.7 1046.8,981.9 68.2,-167.4 -33.6,-330.6 -673.3,-901.4"
         style="fill:#ffffff;fill-opacity:1;fill-rule:nonzero;stroke:none"
         transform="matrix(0.13333333,0,0,-0.13333333,0,3920.6267)" />
      <path
         id="path35"
         d="m 15541.5,15128.5 c 206.3,393.4 412.7,786.8 619.1,1180.2 20.8,-10.8 41.7,-21.7 62.5,-32.6 -205.6,-395.4 -411.2,-790.7 -616.8,-1186.1 -21.6,12.9 -43.2,25.7 -64.8,38.5"
         style="fill:#231f20;fill-opacity:1;fill-rule:nonzero;stroke:none"
         transform="matrix(0.13333333,0,0,-0.13333333,0,3920.6267)" />
      <path
         id="path36"
         d="m 17091.5,19588.7 c -243.9,-209.5 -487.8,-419 -731.7,-628.4 -15,17.2 -29.9,34.5 -44.9,51.8 242.7,210.5 485.4,421 728.1,631.5 16.2,-18.3 32.3,-36.6 48.5,-54.9"
         style="fill:#231f20;fill-opacity:1;fill-rule:nonzero;stroke:none"
         transform="matrix(0.13333333,0,0,-0.13333333,0,3920.6267)" />
    </g>
  </g>
</svg>
