<svg xmlns="http://www.w3.org/2000/svg" id="Layer_1" data-name="Layer 1" viewBox="0 0 321.17 400.06"><defs><style>.cls-1{fill:#333}</style></defs><path d="M204 9.14A17 17 0 0 0 188.87 0H132.3a17 17 0 0 0-15.1 9.14l-6.27 12h99.31ZM254 321.42h-28.57l13.74 16.08H82l13.74-16.08H67.2L0 400.06h28.54l9.05-10.6h246l9.06 10.6h28.54Zm-93.38 51.82H51.45l16.69-19.53H253l16.7 19.53ZM63.93 314.43h193.3a49.67 49.67 0 0 0 49.67-49.67V120.05A91.93 91.93 0 0 0 215 28.12H106.2a91.93 91.93 0 0 0-91.93 91.93v144.71a49.66 49.66 0 0 0 49.66 49.67ZM276.1 254.1a25.35 25.35 0 1 1-26.64-26.65 25.44 25.44 0 0 1 26.64 26.65ZM231.26 78.34A43.66 43.66 0 0 1 274.92 122v48.33a20.23 20.23 0 0 1-20.23 20.23H168.2V78.34ZM127 44.28h67a8.59 8.59 0 0 1 8.65 8.24 8.48 8.48 0 0 1-8.47 8.71H127.2a8.58 8.58 0 0 1-8.64-8.23 8.47 8.47 0 0 1 8.44-8.72ZM46.25 122A43.65 43.65 0 0 1 89.9 78.34H153v112.22H66.47a20.22 20.22 0 0 1-20.22-20.23Zm-1.19 129.46A25.36 25.36 0 1 1 71.7 278.1a25.45 25.45 0 0 1-26.64-26.64Z" class="cls-1"/></svg>